<svg xmlns="http://www.w3.org/2000/svg" xmlns:xlink="http://www.w3.org/1999/xlink" width="50" zoomAndPan="magnify" viewBox="0 0 37.5 37.499999" height="50" preserveAspectRatio="xMidYMid meet" version="1.0"><defs><g/><clipPath id="667c203441"><path d="M 0.480469 0.480469 L 36.746094 0.480469 L 36.746094 36.746094 L 0.480469 36.746094 Z M 0.480469 0.480469 " clip-rule="nonzero"/></clipPath></defs><g clip-path="url(#667c203441)"><path fill="#2563eb" d="M 18.585938 0.652344 C 8.695312 0.652344 0.652344 7.925781 0.652344 16.875 C 0.625 18.027344 0.714844 19.167969 0.925781 20.300781 C 1.136719 21.433594 1.464844 22.53125 1.90625 23.59375 C 2.347656 24.65625 2.894531 25.664062 3.546875 26.609375 C 4.199219 27.558594 4.941406 28.429688 5.773438 29.222656 L 5.773438 35.269531 C 5.777344 35.476562 5.835938 35.667969 5.953125 35.839844 C 6.074219 36.011719 6.230469 36.132812 6.425781 36.207031 C 6.542969 36.226562 6.664062 36.226562 6.78125 36.207031 C 7.046875 36.210938 7.28125 36.125 7.484375 35.953125 L 11.378906 31.734375 C 13.691406 32.652344 16.09375 33.109375 18.585938 33.101562 C 28.472656 33.101562 36.515625 25.824219 36.515625 16.875 C 36.515625 7.925781 28.472656 0.652344 18.585938 0.652344 Z M 18.585938 0.652344 " fill-opacity="1" fill-rule="nonzero"/><path fill="#ffffff" d="M 6.78125 36.277344 C 6.664062 36.292969 6.542969 36.292969 6.425781 36.277344 C 6.21875 36.199219 6.054688 36.066406 5.933594 35.878906 C 5.8125 35.695312 5.761719 35.492188 5.773438 35.269531 L 5.773438 29.222656 C 4.941406 28.429688 4.199219 27.558594 3.546875 26.609375 C 2.894531 25.664062 2.347656 24.65625 1.90625 23.59375 C 1.464844 22.53125 1.136719 21.433594 0.925781 20.300781 C 0.714844 19.167969 0.625 18.027344 0.652344 16.875 C 0.652344 7.925781 8.695312 0.652344 18.585938 0.652344 C 28.472656 0.652344 36.515625 7.925781 36.515625 16.875 C 36.515625 25.824219 28.472656 33.101562 18.585938 33.101562 C 16.09375 33.109375 13.691406 32.652344 11.378906 31.734375 L 7.484375 35.953125 C 7.292969 36.152344 7.058594 36.257812 6.78125 36.277344 Z M 18.585938 2.359375 C 9.636719 2.359375 2.359375 8.867188 2.359375 16.875 C 2.328125 17.933594 2.410156 18.984375 2.605469 20.027344 C 2.800781 21.070312 3.105469 22.078125 3.523438 23.050781 C 3.9375 24.027344 4.453125 24.945312 5.070312 25.808594 C 5.6875 26.667969 6.386719 27.457031 7.175781 28.164062 L 7.484375 28.421875 L 7.484375 33.460938 L 10.898438 29.683594 L 11.460938 29.941406 C 13.734375 30.921875 16.109375 31.40625 18.585938 31.394531 C 27.53125 31.394531 34.808594 24.886719 34.808594 16.875 C 34.808594 8.867188 27.53125 2.359375 18.585938 2.359375 Z M 18.585938 2.359375 " fill-opacity="1" fill-rule="nonzero"/></g><g fill="#ffffff" fill-opacity="1"><g transform="translate(10.776293, 29.365103)"><g><path d="M 9.859375 -15.09375 L 9.5625 -14.640625 C 9.59375 -14.640625 9.617188 -14.628906 9.640625 -14.609375 C 9.671875 -14.597656 9.695312 -14.601562 9.71875 -14.625 C 10.082031 -14.707031 10.441406 -14.726562 10.796875 -14.6875 C 11.160156 -14.644531 11.515625 -14.550781 11.859375 -14.40625 C 12.191406 -14.25 12.546875 -14.050781 12.921875 -13.8125 C 13.097656 -13.675781 13.242188 -13.53125 13.359375 -13.375 C 13.484375 -13.226562 13.617188 -13.085938 13.765625 -12.953125 C 13.878906 -12.828125 13.972656 -12.6875 14.046875 -12.53125 C 14.128906 -12.375 14.195312 -12.210938 14.25 -12.046875 C 14.34375 -11.796875 14.410156 -11.550781 14.453125 -11.3125 C 14.492188 -11.070312 14.53125 -10.820312 14.5625 -10.5625 C 14.65625 -10.050781 14.707031 -9.539062 14.71875 -9.03125 C 14.738281 -8.53125 14.734375 -8.03125 14.703125 -7.53125 C 14.660156 -7.195312 14.625 -6.863281 14.59375 -6.53125 C 14.570312 -6.207031 14.503906 -5.898438 14.390625 -5.609375 C 14.140625 -4.941406 13.851562 -4.300781 13.53125 -3.6875 C 13.21875 -3.082031 12.789062 -2.539062 12.25 -2.0625 C 12.0625 -1.882812 11.867188 -1.722656 11.671875 -1.578125 C 11.484375 -1.429688 11.300781 -1.269531 11.125 -1.09375 C 11.039062 -1.007812 10.9375 -0.9375 10.8125 -0.875 C 10.695312 -0.8125 10.578125 -0.742188 10.453125 -0.671875 C 9.960938 -0.359375 9.394531 -0.117188 8.75 0.046875 C 8.40625 0.140625 8.066406 0.1875 7.734375 0.1875 C 7.410156 0.1875 7.070312 0.160156 6.71875 0.109375 C 6.507812 0.0664062 6.300781 0.0234375 6.09375 -0.015625 C 5.882812 -0.0546875 5.675781 -0.078125 5.46875 -0.078125 C 5.363281 -0.0976562 5.253906 -0.0859375 5.140625 -0.046875 C 5.035156 -0.015625 4.921875 0.0078125 4.796875 0.03125 C 4.671875 0.03125 4.554688 0.0195312 4.453125 0 C 4.347656 -0.03125 4.28125 -0.117188 4.25 -0.265625 C 4.175781 -0.222656 4.109375 -0.1875 4.046875 -0.15625 C 3.992188 -0.125 3.941406 -0.109375 3.890625 -0.109375 C 3.742188 -0.117188 3.609375 -0.132812 3.484375 -0.15625 C 3.367188 -0.175781 3.265625 -0.265625 3.171875 -0.421875 C 3.054688 -0.328125 2.941406 -0.289062 2.828125 -0.3125 C 2.710938 -0.34375 2.59375 -0.382812 2.46875 -0.4375 C 2.382812 -0.476562 2.320312 -0.546875 2.28125 -0.640625 C 2.25 -0.734375 2.226562 -0.820312 2.21875 -0.90625 L 1.984375 -2.234375 L 1.4375 -5.375 L 1.21875 -6.859375 C 1.15625 -7.253906 1.085938 -7.648438 1.015625 -8.046875 C 0.941406 -8.453125 0.878906 -8.851562 0.828125 -9.25 C 0.773438 -9.59375 0.726562 -9.9375 0.6875 -10.28125 C 0.644531 -10.632812 0.609375 -10.988281 0.578125 -11.34375 C 0.535156 -11.476562 0.503906 -11.625 0.484375 -11.78125 C 0.472656 -11.9375 0.457031 -12.082031 0.4375 -12.21875 C 0.4375 -12.425781 0.441406 -12.628906 0.453125 -12.828125 C 0.460938 -13.035156 0.46875 -13.242188 0.46875 -13.453125 C 0.46875 -13.535156 0.472656 -13.613281 0.484375 -13.6875 C 0.503906 -13.769531 0.5 -13.847656 0.46875 -13.921875 C 0.363281 -14.179688 0.316406 -14.441406 0.328125 -14.703125 C 0.335938 -14.972656 0.34375 -15.238281 0.34375 -15.5 C 0.320312 -15.65625 0.304688 -15.8125 0.296875 -15.96875 C 0.285156 -16.125 0.28125 -16.273438 0.28125 -16.421875 C 0.320312 -16.753906 0.359375 -17.078125 0.390625 -17.390625 C 0.421875 -17.710938 0.445312 -18.039062 0.46875 -18.375 C 0.488281 -18.664062 0.519531 -18.945312 0.5625 -19.21875 C 0.601562 -19.488281 0.660156 -19.742188 0.734375 -19.984375 C 0.890625 -20.441406 1.035156 -20.898438 1.171875 -21.359375 C 1.304688 -21.816406 1.460938 -22.269531 1.640625 -22.71875 C 1.710938 -22.914062 1.800781 -23.097656 1.90625 -23.265625 C 2.019531 -23.429688 2.125 -23.597656 2.21875 -23.765625 C 2.300781 -23.867188 2.351562 -23.921875 2.375 -23.921875 C 2.59375 -23.972656 2.78125 -24.070312 2.9375 -24.21875 C 3.09375 -24.375 3.269531 -24.503906 3.46875 -24.609375 C 3.707031 -24.722656 3.910156 -24.773438 4.078125 -24.765625 C 4.242188 -24.765625 4.429688 -24.664062 4.640625 -24.46875 L 4.90625 -24.21875 L 5.1875 -23.875 C 5.789062 -24.21875 6.441406 -24.425781 7.140625 -24.5 C 7.765625 -24.582031 8.347656 -24.546875 8.890625 -24.390625 C 9.648438 -24.148438 10.21875 -23.769531 10.59375 -23.25 C 10.96875 -22.738281 11.195312 -22.117188 11.28125 -21.390625 C 11.332031 -20.972656 11.363281 -20.550781 11.375 -20.125 C 11.382812 -19.707031 11.398438 -19.289062 11.421875 -18.875 C 11.421875 -18.570312 11.375 -18.273438 11.28125 -17.984375 C 11.195312 -17.703125 11.101562 -17.425781 11 -17.15625 C 10.914062 -16.925781 10.820312 -16.703125 10.71875 -16.484375 C 10.613281 -16.265625 10.507812 -16.039062 10.40625 -15.8125 C 10.3125 -15.675781 10.21875 -15.550781 10.125 -15.4375 C 10.03125 -15.320312 9.941406 -15.207031 9.859375 -15.09375 Z M 5.703125 -10.640625 C 5.722656 -9.347656 5.6875 -8.082031 5.59375 -6.84375 C 5.507812 -5.601562 5.476562 -4.335938 5.5 -3.046875 L 5.765625 -3.125 C 6.054688 -3.332031 6.363281 -3.460938 6.6875 -3.515625 C 7.007812 -3.566406 7.34375 -3.585938 7.6875 -3.578125 C 8.175781 -3.578125 8.609375 -3.664062 8.984375 -3.84375 C 9.367188 -4.03125 9.691406 -4.347656 9.953125 -4.796875 C 10.546875 -5.710938 10.894531 -6.742188 11 -7.890625 C 11.050781 -8.273438 11.023438 -8.648438 10.921875 -9.015625 C 10.835938 -9.304688 10.722656 -9.585938 10.578125 -9.859375 C 10.441406 -10.128906 10.253906 -10.363281 10.015625 -10.5625 C 9.847656 -10.695312 9.6875 -10.84375 9.53125 -11 C 9.375 -11.15625 9.164062 -11.21875 8.90625 -11.1875 C 8.84375 -11.164062 8.78125 -11.15625 8.71875 -11.15625 C 8.65625 -11.15625 8.585938 -11.140625 8.515625 -11.109375 C 8.191406 -11.015625 7.867188 -10.9375 7.546875 -10.875 C 7.222656 -10.820312 6.890625 -10.785156 6.546875 -10.765625 C 6.398438 -10.742188 6.257812 -10.722656 6.125 -10.703125 C 6 -10.691406 5.859375 -10.671875 5.703125 -10.640625 Z M 5.53125 -22.078125 C 5.664062 -20.828125 5.75 -19.597656 5.78125 -18.390625 C 5.820312 -17.179688 5.804688 -15.953125 5.734375 -14.703125 C 5.804688 -14.734375 5.851562 -14.753906 5.875 -14.765625 C 5.90625 -14.773438 5.925781 -14.796875 5.9375 -14.828125 C 6.144531 -15.054688 6.351562 -15.273438 6.5625 -15.484375 C 6.769531 -15.691406 6.972656 -15.914062 7.171875 -16.15625 C 7.460938 -16.519531 7.691406 -16.910156 7.859375 -17.328125 C 8.023438 -17.742188 8.175781 -18.171875 8.3125 -18.609375 C 8.65625 -19.703125 8.445312 -20.679688 7.6875 -21.546875 C 7.5625 -21.691406 7.425781 -21.8125 7.28125 -21.90625 C 7.132812 -22 6.96875 -22.054688 6.78125 -22.078125 C 6.582031 -22.085938 6.382812 -22.085938 6.1875 -22.078125 C 5.988281 -22.078125 5.769531 -22.078125 5.53125 -22.078125 Z M 3.859375 -13.578125 L 3.9375 -13.578125 L 3.9375 -14.71875 C 3.957031 -15.519531 3.96875 -16.3125 3.96875 -17.09375 C 3.976562 -17.875 3.984375 -18.65625 3.984375 -19.4375 C 3.984375 -19.59375 3.972656 -19.75 3.953125 -19.90625 C 3.941406 -20.0625 3.925781 -20.210938 3.90625 -20.359375 C 3.820312 -19.210938 3.785156 -18.082031 3.796875 -16.96875 C 3.804688 -15.851562 3.828125 -14.722656 3.859375 -13.578125 Z M 3.859375 -13.578125 "/></g></g></g></svg>